<svg width="370" height="273" viewBox="0 0 370 273" fill="none" xmlns="http://www.w3.org/2000/svg">
<path opacity="0.1" fill-rule="evenodd" clip-rule="evenodd" d="M-8.34271 169.046C3.64676 73.6888 83.4227 -4.33052e-06 180.05 0C284.957 4.70155e-06 370 86.8568 370 194C370 301.143 284.957 388 180.05 388C160.205 388 141.071 384.892 123.089 379.126C120.973 378.615 118.873 378.065 116.788 377.475C112.84 376.687 108.943 375.752 105.103 374.676C84.4444 370.776 65.264 362.571 48.4866 351.007C19.5445 334.23 -2.08771 305.823 -10.3186 272.007C-15.3016 256.719 -18 240.366 -18 223.368C-18 204.246 -14.5846 185.937 -8.34271 169.046ZM-8.77792 187.008C-7.76196 177.907 -6.06872 169.016 -3.75094 160.389C-3.81982 160.544 -3.88842 160.7 -3.95681 160.855C-4.00369 160.962 -4.05044 161.069 -4.0971 161.176C-5.53427 165.408 -6.807 169.719 -7.90747 174.1C-8.33496 178.363 -8.62662 182.667 -8.77792 187.008ZM-8.84927 173.477C-8.86477 173.627 -8.88009 173.778 -8.89526 173.928C-11.751 185.319 -13.4493 197.183 -13.8547 209.382C-14.9835 216.632 -15.5699 224.067 -15.5699 231.642C-15.5699 240.553 -14.7584 249.27 -13.2069 257.721C-15.6888 246.679 -17 235.181 -17 223.368C-17 205.897 -14.1313 189.112 -8.84927 173.477ZM-6.77966 164.992C6.92036 72.1487 85.3652 0.999996 180.05 1C284.385 1 369 87.3891 369 194C369 300.611 284.385 387 180.05 387C164.839 387 150.046 385.164 135.874 381.696C144.724 383.122 153.797 383.863 163.04 383.863C258.552 383.863 335.979 304.784 335.979 207.236C335.979 109.687 258.552 30.6089 163.04 30.6089C88.4693 30.6089 24.9222 78.8125 0.641209 146.375C-1.46255 151.075 -3.35717 155.892 -5.03051 160.816C-5.63302 162.197 -6.21618 163.589 -6.77966 164.992ZM120.107 377.085C129.184 378.708 138.523 379.554 148.055 379.554C236.955 379.554 309.059 305.943 309.059 215.096C309.059 124.248 236.955 50.6372 148.055 50.6372C83.0199 50.6372 26.9741 90.0306 1.56949 146.748C1.32773 147.421 1.08991 148.096 0.856022 148.773C26.5644 101.49 75.9554 69.4922 132.664 69.4922C215.873 69.4922 283.328 138.385 283.328 223.368C283.328 308.352 215.873 377.245 132.664 377.245C127.948 377.245 123.283 377.024 118.679 376.591C119.154 376.757 119.63 376.922 120.107 377.085ZM114.741 375.16C120.617 375.876 126.599 376.245 132.664 376.245C215.301 376.245 282.328 307.82 282.328 223.368C282.328 138.917 215.301 70.4922 132.664 70.4922C74.222 70.4922 23.5878 104.715 -1.05264 154.626C-3.93414 164.012 -6.065 173.739 -7.37329 183.732C11.8124 129.646 62.5543 91.002 122.134 91.002C198.185 91.002 259.837 153.968 259.837 231.642C259.837 309.315 198.185 372.281 122.134 372.281C116.362 372.281 110.673 371.919 105.088 371.214C108.262 372.617 111.48 373.933 114.741 375.16ZM109.529 374.19C106.849 373.095 104.2 371.94 101.583 370.726C100.761 370.6 99.9413 370.467 99.1241 370.327C102.54 371.724 106.009 373.014 109.529 374.19ZM101.877 369.758C108.487 370.762 115.251 371.281 122.134 371.281C197.613 371.281 258.837 308.782 258.837 231.642C258.837 154.501 197.613 92.002 122.134 92.002C61.3677 92.002 9.84122 132.509 -7.93832 188.553C-8.35592 192.588 -8.63983 196.663 -8.78537 200.774C-8.73975 202.125 -8.68054 203.473 -8.60788 204.816C6.78461 153.298 53.6937 115.821 109.173 115.821C177.172 115.821 232.296 172.12 232.296 241.569C232.296 311.018 177.172 367.318 109.173 367.318C104.47 367.318 99.8287 367.048 95.2628 366.524C97.4436 367.644 99.6486 368.723 101.877 369.758ZM92.4105 366.162C94.3565 367.197 96.3222 368.199 98.307 369.167C97.1369 368.957 95.9718 368.732 94.8121 368.492C92.6942 367.555 90.5984 366.577 88.5256 365.557C89.8139 365.779 91.109 365.981 92.4105 366.162ZM92.7254 365.196C98.1051 365.936 103.596 366.318 109.173 366.318C176.6 366.318 231.296 310.486 231.296 241.569C231.296 172.653 176.6 116.821 109.173 116.821C53.196 116.821 5.99302 155.301 -8.42389 207.802C-3.68244 276.349 36.1002 334.999 92.7254 365.196ZM-8.68735 216.039C-1.55796 280.432 36.4371 335.274 89.8256 364.761C88.3154 364.515 86.8145 364.241 85.3234 363.94C31.8306 336.205 -5.56125 280.732 -8.68735 216.039ZM-9.89538 195.302C-9.88361 197.132 -9.84701 198.956 -9.78595 200.773C-9.86148 202.918 -9.89957 205.072 -9.89957 207.236C-9.89957 207.961 -9.89529 208.686 -9.88675 209.41C-11.0982 214.101 -12.051 218.899 -12.7285 223.788C-12.8752 220.909 -12.9495 218.011 -12.9495 215.096C-12.9495 213.214 -12.9185 211.341 -12.8572 209.475C-12.1061 204.664 -11.1145 199.935 -9.89538 195.302ZM-9.88434 191.517C-10.8435 194.814 -11.6875 198.161 -12.4116 201.555C-11.8534 194.557 -10.8663 187.684 -9.47735 180.962C-9.70437 184.456 -9.84085 187.975 -9.88434 191.517ZM163.04 31.6089C93.3245 31.6089 33.2827 73.9969 6.29905 134.935C33.9349 84.0661 87.0581 49.6372 148.055 49.6372C237.527 49.6372 310.059 123.715 310.059 215.096C310.059 306.476 237.527 380.554 148.055 380.554C141.611 380.554 135.256 380.17 129.009 379.423C140.01 381.679 151.39 382.863 163.04 382.863C257.98 382.863 334.979 304.252 334.979 207.236C334.979 110.22 257.98 31.6089 163.04 31.6089ZM94.503 369.449C97.6973 370.859 100.941 372.173 104.232 373.388C99.1473 371.922 94.1648 370.208 89.2977 368.258C91.0203 368.688 92.7557 369.086 94.503 369.449ZM84.9861 364.892C86.6679 365.762 88.3654 366.605 90.0782 367.42C87.4605 366.778 84.8721 366.058 82.3153 365.264C80.9263 364.629 79.5476 363.974 78.1797 363.3C80.4243 363.894 82.6937 364.426 84.9861 364.892ZM81.7056 363.149C28.8318 334.318 -7.65625 278.252 -9.79977 213.293C-10.9795 218.494 -11.8409 223.819 -12.3618 229.247C-7.57736 286.597 26.0164 335.539 73.5633 360.93C76.2396 361.763 78.9549 362.503 81.7056 363.149ZM-13.3657 229.241C-13.6738 225.525 -13.8616 221.774 -13.9251 217.992C-14.3516 222.483 -14.5699 227.036 -14.5699 231.642C-14.5699 236.392 -14.3376 241.087 -13.8842 245.716C-13.9279 244.339 -13.9499 242.957 -13.9499 241.569C-13.9499 237.41 -13.7522 233.297 -13.3657 229.241ZM93.7092 371.014C89.717 369.563 85.7971 367.956 81.9563 366.201C75.2924 364.128 68.8428 361.553 62.6497 358.519C72.412 363.806 82.8152 368.023 93.7092 371.014ZM74.5936 362.605C74.1194 362.358 73.6466 362.109 73.1751 361.858C72.333 361.595 71.4948 361.324 70.6605 361.043C71.9617 361.584 73.2728 362.105 74.5936 362.605ZM68.3487 359.176C64.2255 357.683 60.204 355.969 56.2979 354.05C49.0792 349.99 42.2581 345.284 35.9094 340.007C19.8397 326.085 6.68402 308.759 -2.48975 289.119C-6.2768 280.565 -9.2446 271.551 -11.2908 262.182C-12.3821 255.477 -12.9499 248.591 -12.9499 241.569C-12.9499 239.377 -12.8946 237.198 -12.7852 235.034C-6.51563 288.348 24.5781 333.864 68.3487 359.176ZM36.549 341.872C18.0323 327.859 3.53018 308.624 -4.86762 286.293C-4.39041 287.38 -3.90122 288.459 -3.40024 289.532C5.46341 309.55 18.7822 327.069 35.2647 340.771C35.6908 341.141 36.1189 341.507 36.549 341.872Z" fill="#6246E5"/>
</svg>
