<svg width="151" height="151" viewBox="0 0 151 151" fill="none" xmlns="http://www.w3.org/2000/svg">
<path d="M80.8702 74.3751V76.2394H70.1296V74.3751H80.8702ZM76.5008 69.8213V81.1789H74.5098V69.8213H76.5008Z" fill="#6246E5"/>
<path d="M151 4.55377V6.41813H140.26V4.55377H151ZM146.631 0V11.3576H144.64V0H146.631Z" fill="#FF7152"/>
<path d="M80.8703 6.41813V4.55377H76.5009V0H74.5099V4.55377H70.1297V6.41813H74.5099V11.3576H76.5009V6.41813H80.8703Z" fill="#E5E5E5"/>
<path d="M45.8054 109.286V111.15H41.436V116.089H39.445V111.15H35.0649V109.286H39.445V104.732H41.436V109.286H45.8054Z" fill="#E5E5E5"/>
<path d="M10.7406 144.196V146.061H6.37116V151H4.38017V146.061H0V144.196H4.38017V139.642H6.37116V144.196H10.7406Z" fill="#E5E5E5"/>
<path d="M80.8703 39.4644V41.3287H76.5009V46.2682H74.5099V41.3287H70.1297V39.4644H74.5099V34.9106H76.5009V39.4644H80.8703Z" fill="#E5E5E5"/>
<path d="M80.8703 111.15V109.286H76.5009V104.732H74.5099V109.286H70.1297V111.15H74.5099V116.089H76.5009V111.15H80.8703Z" fill="#E5E5E5"/>
<path d="M80.8703 144.196V146.061H76.5009V151H74.5099V146.061H70.1297V144.196H74.5099V139.642H76.5009V144.196H80.8703Z" fill="#E5E5E5"/>
<path d="M115.935 6.41813V4.55377H111.566V0H109.575V4.55377H105.195V6.41813H109.575V11.3576H111.566V6.41813H115.935Z" fill="#E5E5E5"/>
<path d="M115.935 39.4644V41.3287H111.566V46.2682H109.575V41.3287H105.195V39.4644H109.575V34.9106H111.566V39.4644H115.935Z" fill="#E5E5E5"/>
<path d="M115.935 76.2393V74.3749H111.566V69.8212H109.575V74.3749H105.195V76.2393H109.575V81.1788H111.566V76.2393H115.935Z" fill="#E5E5E5"/>
<path d="M115.935 109.286V111.15H111.566V116.089H109.575V111.15H105.195V109.286H109.575V104.732H111.566V109.286H115.935Z" fill="#E5E5E5"/>
<path d="M115.935 146.061V144.196H111.566V139.642H109.575V144.196H105.195V146.061H109.575V151H111.566V146.061H115.935Z" fill="#E5E5E5"/>
<path d="M151 39.4644V41.3287H146.631V46.2682H144.64V41.3287H140.259V39.4644H144.64V34.9106H146.631V39.4644H151Z" fill="#E5E5E5"/>
<path d="M151 76.2393V74.3749H146.631V69.8212H144.64V74.3749H140.259V76.2393H144.64V81.1788H146.631V76.2393H151Z" fill="#E5E5E5"/>
<path d="M151 109.286V111.15H146.631V116.089H144.64V111.15H140.259V109.286H144.64V104.732H146.631V109.286H151Z" fill="#E5E5E5"/>
<path d="M151 146.061V144.196H146.631V139.642H144.64V144.196H140.259V146.061H144.64V151H146.631V146.061H151Z" fill="#E5E5E5"/>
</svg>
