<svg width="198" height="261" viewBox="0 0 198 261" fill="none" xmlns="http://www.w3.org/2000/svg">
<path opacity="0.1" fill-rule="evenodd" clip-rule="evenodd" d="M121.122 254.081C52.7985 245.491 0 188.332 0 119.098C0 43.9332 62.2324 -17 139 -17C215.768 -17 278 43.9332 278 119.098C278 133.315 275.773 147.024 271.643 159.906C271.277 161.424 270.882 162.93 270.459 164.425C269.894 167.255 269.224 170.049 268.453 172.801C265.658 187.602 259.779 201.343 251.494 213.364C239.473 234.101 219.119 249.6 194.889 255.497C183.936 259.067 172.22 261 160.042 261C146.342 261 133.224 258.553 121.122 254.081ZM130.379 253.937C126.234 253.356 122.153 252.577 118.147 251.613C120.333 252.3 122.547 252.926 124.787 253.489C126.641 253.674 128.505 253.824 130.379 253.937ZM117.098 252.505C51.2776 242.23 1 186.398 1 119.098C1 44.5053 62.7647 -16 139 -16C215.235 -16 277 44.5053 277 119.098C277 128.767 275.962 138.199 273.99 147.294C274.68 142.053 275.036 136.71 275.036 131.285C275.036 62.8515 218.377 7.375 148.484 7.375C78.591 7.375 21.9316 62.8515 21.9316 131.285C21.9316 184.709 56.4613 230.235 104.861 247.637C108.236 249.149 111.696 250.509 115.232 251.711C115.851 251.981 116.473 252.246 117.098 252.505ZM268.523 165.823C269.032 161.635 269.294 157.372 269.294 153.05C269.294 94.003 220.4 46.1001 160.042 46.1001C99.6845 46.1001 50.7909 94.003 50.7909 153.05C50.7909 194.799 75.234 230.978 110.89 248.591C117.185 250.523 123.694 251.982 130.374 252.927C92.2877 238.843 65.2022 202.816 65.2022 160.595C65.2022 106.104 110.317 61.9312 165.97 61.9312C221.622 61.9312 266.737 106.104 266.737 160.595C266.737 164.394 266.518 168.143 266.091 171.831C266.949 169.852 267.76 167.849 268.523 165.823ZM266.348 173.729C266.11 174.261 265.868 174.792 265.623 175.32C265.598 175.48 265.574 175.64 265.548 175.799C265.821 175.112 266.088 174.422 266.348 173.729ZM264.656 175.026C265.368 170.317 265.737 165.498 265.737 160.595C265.737 106.677 221.09 62.9312 165.97 62.9312C110.85 62.9312 66.2022 106.677 66.2022 160.595C66.2022 203.992 95.1246 240.798 135.151 253.511C138.028 253.808 140.934 254.01 143.866 254.114C144.562 254.09 145.257 254.062 145.95 254.028C109.45 242.756 82.9848 209.345 82.9848 169.881C82.9848 121.16 123.323 81.6641 173.083 81.6641C222.843 81.6641 263.181 121.16 263.181 169.881C263.181 172.978 263.018 176.038 262.7 179.052C263.374 177.722 264.026 176.38 264.656 175.026ZM262.353 181.892C262.931 180.805 263.495 179.709 264.044 178.605C263.95 179.1 263.852 179.593 263.75 180.085C263.214 181.297 262.658 182.5 262.083 183.692C262.179 183.094 262.269 182.494 262.353 181.892ZM261.387 181.577C261.911 177.751 262.181 173.847 262.181 169.881C262.181 121.732 222.31 82.6641 173.083 82.6641C123.855 82.6641 83.9848 121.732 83.9848 169.881C83.9848 209.838 111.442 243.541 148.918 253.853C197.895 250.448 239.796 222.027 261.387 181.577ZM159.459 253.733C203.277 247.404 240.438 221.055 260.938 184.483C260.8 185.284 260.65 186.082 260.49 186.875C241.331 223.798 203.681 249.984 159.459 253.733ZM141.026 255.182C141.975 255.169 142.921 255.146 143.865 255.115C145.398 255.168 146.938 255.196 148.484 255.196C149.003 255.196 149.521 255.193 150.038 255.186C152.927 255.932 155.872 256.542 158.866 257.006C157.29 257.068 155.706 257.099 154.115 257.099C152.778 257.099 151.445 257.077 150.119 257.033C147.039 256.552 144.006 255.933 141.026 255.182ZM137.221 255.185C138.903 255.675 140.604 256.122 142.321 256.527C138.737 256.177 135.201 255.67 131.719 255.013C133.544 255.105 135.378 255.163 137.221 255.185ZM22.9316 131.285C22.9316 179.905 51.7749 221.947 93.6397 241.881C58.868 221.649 35.565 184.501 35.565 142.023C35.565 77.9169 88.6417 25.9482 154.115 25.9482C219.589 25.9482 272.665 77.9169 272.665 142.023C272.665 145.49 272.51 148.921 272.206 152.311C273.409 145.478 274.036 138.453 274.036 131.285C274.036 63.4236 217.844 8.375 148.484 8.375C79.1233 8.375 22.9316 63.4236 22.9316 131.285ZM264.708 180.394C265.188 179.306 265.653 178.21 266.102 177.106C265.551 178.794 264.961 180.464 264.333 182.117C264.463 181.545 264.588 180.97 264.708 180.394ZM261.443 187.212C261.85 186.425 262.249 185.634 262.639 184.837C262.272 186.247 261.873 187.643 261.443 189.027C261.184 189.592 260.921 190.155 260.654 190.715C260.94 189.556 261.204 188.388 261.443 187.212ZM259.675 190.505C239.037 227.575 199.625 253.183 153.946 255.082C157.316 255.804 160.758 256.339 164.259 256.676C205.231 253.248 240.193 229.25 258.341 195.289C258.83 193.712 259.276 192.117 259.675 190.505ZM164.253 257.68C162.443 257.83 160.622 257.94 158.79 258.01C161.161 258.175 163.555 258.259 165.97 258.259C167.953 258.259 169.923 258.202 171.878 258.091C169.309 258.058 166.766 257.919 164.253 257.68ZM127.328 255.123C134.657 256.781 142.247 257.773 150.026 258.031C155.219 258.839 160.544 259.259 165.97 259.259C170.035 259.259 174.044 259.023 177.984 258.565C172.147 259.509 166.153 260 160.042 260C148.645 260 137.656 258.292 127.328 255.123ZM104.988 246.598C64.5934 228.382 36.565 188.398 36.565 142.023C36.565 78.489 89.174 26.9482 154.115 26.9482C219.056 26.9482 271.665 78.489 271.665 142.023C271.665 148.761 271.074 155.363 269.938 161.784C270.174 158.903 270.294 155.99 270.294 153.05C270.294 93.4309 220.933 45.1001 160.042 45.1001C99.1522 45.1001 49.7909 93.4309 49.7909 153.05C49.7909 193.035 71.9942 227.943 104.988 246.598ZM264.554 184.308C263.869 186.021 263.144 187.714 262.379 189.387C261.545 192.07 260.596 194.705 259.539 197.286C261.486 193.097 263.164 188.764 264.554 184.308ZM256.518 200.545C255.591 202.96 254.558 205.325 253.424 207.634C250.524 212.789 247.163 217.66 243.394 222.194C233.446 233.676 221.066 243.076 207.032 249.631C200.924 252.334 194.488 254.453 187.798 255.915C183.012 256.693 178.096 257.098 173.083 257.098C172.089 257.098 171.099 257.082 170.112 257.051C207 252.179 238.506 230.696 256.518 200.545ZM212.949 247.903C222.665 243.137 231.365 236.683 238.651 228.935C231.207 236.523 222.535 242.947 212.949 247.903Z" fill="#6246E5"/>
</svg>
